{"title":"Animals.United.720p.BRRip.x264.Feel-Free","uid":6346193,"size":2371705735,"categoryP":"video","categoryS":"hd___movies","magnet":"?xt=urn:btih:4ee0a0ca3af2f9d2605dd0e2592eb9808f46056c&amp;dn=Animals.United.720p.BRRip.x264.Feel-Free&amp;tr=udp%3A%2F%2Ftracker.openbittorrent.com%3A80&amp;tr=udp%3A%2F%2Fopen.demonii.com%3A1337&amp;tr=udp%3A%2F%2Ftracker.coppersurfer.tk%3A6969&amp;tr=udp%3A%2F%2Fexodus.desync.com%3A6969","seeders":1,"leechers":0,"uploader":"hiest","files":11,"time":1303841610,"description":"Genre:Animation | Family\n Language:English\n IMDb:http://www.imdb.com/title/tt1620449/\n Source:.BluRay.x264-ALLiANCE\n Subtitles:Romana\n\n\n Format : MPEG-4\n Format profile : Base Media\n Codec ID : isom\n File size : 2.20 GiB\n Duration : 1h 33mn\n Overall bit rate : 3 385 Kbps\n\n\n Video\n Format profile : &lt;a class=&quot;__cf_email__&quot; href=&quot;/cdn-cgi/l/email-protection&quot; data-cfemail=&quot;571f3e303f171b637966&quot;&gt;[email&amp;#160;protected]&lt;/a&gt;&lt;script cf-hash='f9e31' type=&quot;text/javascript&quot;&gt;\n/* &lt;![CDATA[ */!function(){try{var t=&quot;currentScript&quot;in document?document.currentScript:function(){for(var t=document.getElementsByTagName(&quot;script&quot;),e=t.length;e--;)if(t[e].getAttribute(&quot;cf-hash&quot;))return t[e]}();if(t&amp;&amp;t.previousSibling){var e,r,n,i,c=t.previousSibling,a=c.getAttribute(&quot;data-cfemail&quot;);if(a){for(e=&quot;&quot;,r=parseInt(a.substr(0,2),16),n=2;a.length-n;n+=2)i=parseInt(a.substr(n,2),16)^r,e+=String.fromCharCode(i);e=document.createTextNode(e),c.parentNode.replaceChild(e,c)}}}catch(u){}}();/* ]]&gt; */&lt;/script&gt;\n Format settings, CABAC : Yes\n Format settings, ReFrames : 3 frames\n Codec ID : avc1\n Codec ID/Info : Advanced Video Coding\n Duration : 1h 33mn\n Bit rate mode : Variable\n Bit rate : 3 000 Kbps\n Maximum bit rate : 20.5 Mbps\n Width : 1 280 pixels\n Height : 544 pixels\n Display aspect ratio : 2.35:1\n Frame rate mode : Constant\n Frame rate : 23.976 fps\n Color space : YUV\n Chroma subsampling : 4:2:0\n Bit depth : 8 bits\n Scan type : Progressive\n Bits/(Pixel*Frame) : 0.180\n Stream size : 1.91 GiB (87%)\n Writing library : x264\n\n\n Audio\n ID : 2\n Format : AAC\n Format/Info : Advanced Audio Codec\n Format version : Version 4\n Format profile : LC\n Format settings, SBR : No\n Codec ID : 40\n Duration : 1h 33mn\n Bit rate mode : Variable\n Bit rate : 447 Kbps\n Maximum bit rate : 537 Kbps\n Channel(s) : 6 channels\n Channel positions : Front: L C R, Side: L R, LFE\n Sampling rate : 48.0 KHz\n Stream size : 297 MiB (13%)\n\n\n Plot:\n A group of animals waiting for the annual flood they rely on for food and water discover that the humans...\n\n\n\n\n\n\n\n----------------------------------                &lt;a href=&quot;\nhttp://thepiratebay.se/user/hiest&quot; rel=&quot;nofollow&quot; target=&quot;_NEW&quot;&gt;\nhttp://thepiratebay.se/user/hiest&lt;/a&gt;\n----------------------------------\n\n\n\n\n\n\nScreenshots:\n &lt;a href=&quot;\nhttp://leetleech.org/images/01776992006176539336.png&quot; rel=&quot;nofollow&quot; target=&quot;_NEW&quot;&gt;\nhttp://leetleech.org/images/01776992006176539336.png&lt;/a&gt;\n &lt;a href=&quot;\nhttp://leetleech.org/images/93820867600277952460.png&quot; rel=&quot;nofollow&quot; target=&quot;_NEW&quot;&gt;\nhttp://leetleech.org/images/93820867600277952460.png&lt;/a&gt;\n &lt;a href=&quot;\nhttp://leetleech.org/images/40142844023746016014.png&quot; rel=&quot;nofollow&quot; target=&quot;_NEW&quot;&gt;\nhttp://leetleech.org/images/40142844023746016014.png&lt;/a&gt;\n &lt;a href=&quot;\nhttp://leetleech.org/images/88022700255195810401.png&quot; rel=&quot;nofollow&quot; target=&quot;_NEW&quot;&gt;\nhttp://leetleech.org/images/88022700255195810401.png&lt;/a&gt;\n &lt;a href=&quot;\nhttp://leetleech.org/images/43176874632812124434.png&quot; rel=&quot;nofollow&quot; target=&quot;_NEW&quot;&gt;\nhttp://leetleech.org/images/43176874632812124434.png&lt;/a&gt;","torrent":{"xt":"urn:btih:4ee0a0ca3af2f9d2605dd0e2592eb9808f46056c","amp;dn":"Animals.United.720p.BRRip.x264.Feel-Free","amp;tr":["udp%3A%2F%2Ftracker.openbittorrent.com%3A80","udp%3A%2F%2Fopen.demonii.com%3A1337","udp%3A%2F%2Ftracker.coppersurfer.tk%3A6969","udp%3A%2F%2Fexodus.desync.com%3A6969"],"infoHash":"4ee0a0ca3af2f9d2605dd0e2592eb9808f46056c","infoHashBuffer":{"type":"Buffer","data":[78,224,160,202,58,242,249,210,96,93,208,226,89,46,185,128,143,70,5,108]},"announce":[],"urlList":[]}}